<?xml version="1.0" encoding="UTF-8" standalone="no"?>
<!-- Created with Inkscape (http://www.inkscape.org/) -->

<svg
   width="1280"
   height="720"
   viewBox="0 0 338.66667 190.5"
   version="1.1"
   id="svg1"
   sodipodi:docname="background.svg"
   inkscape:version="1.4.2 (ebf0e940, 2025-05-08)"
   inkscape:export-filename="../assets/background.png"
   inkscape:export-xdpi="96"
   inkscape:export-ydpi="96"
   xmlns:inkscape="http://www.inkscape.org/namespaces/inkscape"
   xmlns:sodipodi="http://sodipodi.sourceforge.net/DTD/sodipodi-0.dtd"
   xmlns:xlink="http://www.w3.org/1999/xlink"
   xmlns="http://www.w3.org/2000/svg"
   xmlns:svg="http://www.w3.org/2000/svg">
  <sodipodi:namedview
     id="namedview1"
     pagecolor="#ffffff"
     bordercolor="#000000"
     borderopacity="0.25"
     inkscape:showpageshadow="2"
     inkscape:pageopacity="0.0"
     inkscape:pagecheckerboard="0"
     inkscape:deskcolor="#d1d1d1"
     inkscape:document-units="px"
     inkscape:zoom="1.160918"
     inkscape:cx="313.11427"
     inkscape:cy="525.01554"
     inkscape:window-width="1728"
     inkscape:window-height="1084"
     inkscape:window-x="0"
     inkscape:window-y="33"
     inkscape:window-maximized="0"
     inkscape:current-layer="layer1"
     showguides="true" />
  <defs
     id="defs1">
    <linearGradient
       id="linearGradient4"
       inkscape:collect="always">
      <stop
         style="stop-color:#d5f6ff;stop-opacity:1"
         offset="0"
         id="stop4" />
      <stop
         style="stop-color:#00ccff;stop-opacity:1"
         offset="1"
         id="stop5" />
    </linearGradient>
    <linearGradient
       inkscape:collect="always"
       xlink:href="#linearGradient4"
       id="linearGradient5"
       x1="173.99248"
       y1="190.83044"
       x2="174.36664"
       y2="-63.610149"
       gradientUnits="userSpaceOnUse" />
  </defs>
  <g
     inkscape:label="backdrop"
     inkscape:groupmode="layer"
     id="layer1">
    <rect
       style="fill:url(#linearGradient5);fill-opacity:1;stroke-width:0.26767;stroke-dasharray:none"
       id="rect1"
       width="338.66666"
       height="190.49913"
       x="0"
       y="0.0010335154" />
    <g
       id="g2"
       transform="matrix(0.67898849,0,0,0.67898849,3.2840102,-43.636491)">
      <path
         id="path6"
         style="fill:#f9f9f9;stroke-width:0.267758"
         d="m 213.51823,127.27664 c -1.88279,0.007 -3.72138,0.55512 -5.28443,1.57509 -1.35105,-5.36622 -6.29736,-9.14315 -11.98273,-9.14983 -1.61705,3e-4 -3.21831,0.30914 -4.71289,0.90899 -1.58853,-6.82435 -7.82285,-11.67422 -15.02337,-11.68714 -1.33404,7.6e-4 -2.66235,0.1696 -3.9517,0.5023 -2.56387,-10.204672 -11.96762,-17.389007 -22.77794,-17.402042 -2.94596,0.0077 -5.86411,0.554157 -8.60206,1.610754 -5.23394,-9.107536 -15.12528,-14.754787 -25.86043,-14.764474 v 3.5e-4 c -14.9393,0.0051 -27.541499,10.809159 -29.408027,25.211902 -3.085647,-1.81513 -6.622333,-2.77814 -10.22935,-2.78536 -7.023703,4e-5 -13.523444,3.61011 -17.087846,9.49089 -3.041089,-2.16406 -6.680841,-3.32692 -10.413318,-3.32693 -8.682679,-1.5e-4 -16.122245,6.21094 -17.672306,14.75414 -1.675789,-0.89034 -3.544422,-1.35594 -5.442045,-1.35599 -5.933868,-4e-5 -10.91096,4.47827 -11.535214,10.37921 -1.027893,-0.4294 -2.130784,-0.65054 -3.244763,-0.6506 -4.2895843,-2e-5 -7.8933153,3.22513 -8.3674477,7.48843 0.02303,-0.003 0.046325,-0.005 0.07028,-0.005 l 220.9125767,-0.047 c 0.0646,-3.32111 -4.1154,-10.74764 -9.38699,-10.74764 z"
         sodipodi:nodetypes="cccccccccccccccccccscc" />
      <path
         id="path7"
         style="vector-effect:non-scaling-stroke;fill:#f2f2f2;fill-opacity:1;stroke:none;stroke-width:0.264583;stroke-dasharray:none;-inkscape-stroke:hairline"
         d="m 156.3827,99.18051 c -6.33762,0.11693 -11.90175,3.31133 -17.00154,11.57604 -6.78999,11.00385 -17.11058,9.64799 -21.88962,8.60619 0,0 -11.41204,-1.49683 -13.09584,10.85102 l -0.18656,7.8357 39.63583,-0.008 79.06081,-0.0615 c 0.0268,-3.34243 -4.13936,-10.70322 -9.38755,-10.70322 -1.88279,0.007 -3.72138,0.55513 -5.28443,1.5751 -1.35105,-5.36622 -6.29736,-9.14315 -11.98273,-9.14983 -1.61705,3e-4 -3.21831,0.30914 -4.71289,0.90899 -1.58853,-6.82435 -7.82285,-11.67423 -15.02337,-11.68715 -1.33404,7.6e-4 -2.66235,0.1696 -3.9517,0.5023 -0.73363,-2.91997 -2.02739,-5.59231 -3.19883,-6.90159 -1.5e-4,-1.9e-4 -6.64395,-3.46071 -12.98158,-3.34378 z"
         sodipodi:nodetypes="ssccccccccccccss" />
    </g>
    <rect
       style="fill:#2ad4ff;stroke-width:0.210032"
       id="rect2"
       width="39.058765"
       height="143.29184"
       x="129.61775"
       y="47.208164" />
    <rect
       style="fill:#2ad4ff;stroke-width:0.191245"
       id="rect2-2"
       width="39.058765"
       height="118.80369"
       x="77.470581"
       y="71.69632" />
    <g
       id="g5"
       transform="matrix(0.70662168,0,0,0.70662168,116.02362,-7.5103998)">
      <path
         id="path5-1"
         style="fill:#f9f9f9;fill-opacity:1;stroke-width:0.222445"
         d="m 265.68249,37.143469 a 20.205576,20.205576 0 0 0 -17.9927,11.011215 13.844562,13.844562 0 0 0 -3.27267,-0.392224 13.844562,13.844562 0 0 0 -13.0607,9.252665 8.7931671,8.7931671 0 0 0 -4.01267,-0.968933 8.7931671,8.7931671 0 0 0 -8.79326,8.793261 8.7931671,8.7931671 0 0 0 8.79326,8.793262 8.7931671,8.7931671 0 0 0 6.59494,-2.977596 13.844562,13.844562 0 0 0 10.47843,4.796607 13.844562,13.844562 0 0 0 8.1995,-2.689242 20.205576,20.205576 0 0 0 13.06587,4.792472 20.205576,20.205576 0 0 0 10.63139,-3.023588 13.844562,13.844562 0 0 0 11.52488,6.17275 13.844562,13.844562 0 0 0 11.41894,-6.015653 8.7931671,8.7931671 0 0 0 5.00022,1.560111 8.7931671,8.7931671 0 0 0 8.79326,-8.793262 8.7931671,8.7931671 0 0 0 -8.79326,-8.793261 8.7931671,8.7931671 0 0 0 -4.4633,1.217496 13.844562,13.844562 0 0 0 -11.95586,-6.86418 13.844562,13.844562 0 0 0 -2.37711,0.205672 20.205576,20.205576 0 0 0 -19.77916,-16.077572 z" />
      <path
         id="path9"
         style="vector-effect:non-scaling-stroke;fill:#f2f2f2;fill-opacity:1;stroke:none;stroke-width:0.264583;stroke-dasharray:none;-inkscape-stroke:hairline"
         d="m 287.83876,53.015369 c -3.45235,-0.249609 -5.62302,3.037021 -7.27189,5.56849 -0.9958,2.068988 -2.4724,3.984123 -4.69035,4.812713 -3.32531,1.389828 -7.04136,1.79237 -10.59843,1.336337 -5.01594,-0.262918 -10.00765,2.582832 -12.19472,7.135772 -1.44287,2.217637 3.60081,2.937462 4.67144,4.066219 5.9351,2.535615 13.07997,2.078423 18.55904,-1.403528 3.62008,5.5999 11.49729,7.82854 17.47077,4.806425 2.30865,-0.900608 4.15592,-3.187041 5.70706,-4.494659 4.02538,2.740951 10.13016,1.278391 12.41469,-3.059916 2.65101,-4.366149 0.47263,-10.660477 -4.30974,-12.460741 -2.50455,-1.035979 -5.47647,-0.840773 -7.80256,0.557074 -2.4506,-4.132948 -7.08227,-6.930154 -11.95531,-6.864186 z" />
    </g>
    <rect
       style="fill:#2ad4ff;stroke-width:0.264583"
       id="rect3"
       width="32.079762"
       height="11.104532"
       x="133.10725"
       y="36.071136" />
    <rect
       style="fill:#2ad4ff;stroke-width:0.192116"
       id="rect4"
       width="36.902473"
       height="81.614845"
       x="168.4576"
       y="108.88515" />
    <rect
       style="fill:#2ad4ff;stroke-width:0.241352"
       id="rect5"
       width="45.437222"
       height="106.34533"
       x="205.1554"
       y="84.154663" />
    <rect
       style="fill:#2ad4ff;stroke-width:0.267264"
       id="rect5-1"
       width="44.168571"
       height="134.15164"
       x="261.56696"
       y="56.348351" />
    <rect
       style="fill:#2ad4ff;stroke-width:0.47147"
       id="rect6"
       width="22.748079"
       height="10.850359"
       x="85.625923"
       y="60.864773" />
    <rect
       style="fill:#2ad4ff;stroke-width:0.264583"
       id="rect7"
       width="4.6666398"
       height="24.110971"
       x="94.666641"
       y="37.167912" />
    <rect
       style="fill:#2ad4ff;stroke-width:0.264583"
       id="rect8"
       width="21.060349"
       height="18.637476"
       x="284.67517"
       y="42.120697" />
    <rect
       style="fill:#2ad4ff;stroke-width:0.264583"
       id="rect9"
       width="6.3367414"
       height="5.5912423"
       x="292.03699"
       y="37.834076" />
    <rect
       style="fill:#2ad4ff;stroke-width:0.266024"
       id="rect10"
       width="15.480496"
       height="98.141785"
       x="305.14944"
       y="92.358215" />
    <rect
       style="fill:#2ad4ff;stroke-width:0.533767"
       id="rect11"
       width="19.086267"
       height="111.52322"
       x="319.58041"
       y="78.976776" />
    <rect
       style="fill:#2ad4ff;stroke-width:0.264583"
       id="rect12"
       width="19.088608"
       height="76.366028"
       x="0"
       y="114.13397" />
    <rect
       style="fill:#2ad4ff;stroke-width:0.264583"
       id="rect13"
       width="23.86076"
       height="103.01054"
       x="19.088608"
       y="87.489449" />
    <rect
       style="fill:#2ad4ff;stroke-width:0.264583"
       id="rect14"
       width="25.517807"
       height="81.614861"
       x="42.4202"
       y="108.88515" />
    <rect
       style="fill:#2ad4ff;stroke-width:0.395134"
       id="rect15"
       width="12.003094"
       height="13.634628"
       x="49.177559"
       y="95.250519" />
    <ellipse
       style="fill:#2ad4ff;stroke-width:0.264583"
       id="path15"
       cx="31.018988"
       cy="87.686226"
       rx="11.930379"
       ry="10.550229" />
    <path
       style="fill:#2ad4ff;stroke-width:0.919263"
       d="m 215.40413,84.154663 12.5647,-23.882745 12.37505,23.882745 z"
       id="path16"
       sodipodi:nodetypes="cccc" />
    <rect
       style="fill:#2ad4ff;stroke-width:0.264583"
       id="rect16"
       width="13.28964"
       height="5.2488251"
       x="2.8994837"
       y="108.88515" />
    <g
       id="g31"
       transform="matrix(1.2996179,0,0,1.2996179,-52.070832,-2.2712859)">
      <path
         id="path21"
         style="fill:#ffffff;stroke-width:0.193227"
         d="m 200.58628,6.6536451 a 12.744994,12.744994 0 0 0 -10.37802,5.3469499 8.9072894,8.9072894 0 0 0 -3.1188,-0.563453 8.9072894,8.9072894 0 0 0 -8.2412,5.527723 4.6201653,4.6201653 0 0 0 -0.4374,-0.02076 4.6201653,4.6201653 0 0 0 -4.62009,4.620084 4.6201653,4.6201653 0 0 0 4.62009,4.620086 4.6201653,4.6201653 0 0 0 1.68846,-0.319278 8.9072894,8.9072894 0 0 0 6.99014,3.386748 8.9072894,8.9072894 0 0 0 4.25175,-1.0801 12.744994,12.744994 0 0 0 9.24507,3.972097 12.744994,12.744994 0 0 0 8.59558,-3.335057 9.6146451,9.6146451 0 0 0 4.05776,0.8982 9.6146451,9.6146451 0 0 0 5.5047,-1.73187 6.7078921,6.7078921 0 0 0 3.94757,1.28466 6.7078921,6.7078921 0 0 0 4.47025,-1.70696 4.5837265,4.5837265 0 0 0 1.37033,0.20983 4.5837265,4.5837265 0 0 0 4.58385,-4.583854 4.5837265,4.5837265 0 0 0 -4.58385,-4.583855 4.5837265,4.5837265 0 0 0 -0.41061,0.01849 6.7078921,6.7078921 0 0 0 -5.42997,-2.769334 6.7078921,6.7078921 0 0 0 -0.80348,0.04831 9.6146451,9.6146451 0 0 0 -8.64879,-5.414882 9.6146451,9.6146451 0 0 0 -3.08069,0.507221 12.744994,12.744994 0 0 0 -9.57265,-4.3309989 z" />
      <path
         id="path30"
         style="fill:#f2f2f2;fill-opacity:1;stroke-width:0.264583"
         d="m 221.5441,15.246615 -0.61753,0.308508 c 0,0 1.89234,5.044838 -3.78323,6.306075 -5.67557,1.261238 -6.72679,2.312271 -7.77782,6.516398 -0.0402,0.160629 -0.0533,0.326255 -0.0408,0.496094 a 9.6146451,9.6146451 0 0 0 3.91501,0.833024 9.6146451,9.6146451 0 0 0 5.50457,-1.731677 6.7078921,6.7078921 0 0 0 3.94756,1.284676 6.7078921,6.7078921 0 0 0 4.47053,-1.706873 4.5837265,4.5837265 0 0 0 1.36994,0.209807 4.5837265,4.5837265 0 0 0 4.58422,-4.5837 4.5837265,4.5837265 0 0 0 -4.58422,-4.584216 4.5837265,4.5837265 0 0 0 -0.41031,0.0186 6.7078921,6.7078921 0 0 0 -5.43016,-2.76934 6.7078921,6.7078921 0 0 0 -0.80356,0.04806 9.6146451,9.6146451 0 0 0 -0.34417,-0.645438 z" />
    </g>
  </g>
</svg>
