<?xml version="1.0" encoding="UTF-8" standalone="no"?>
<!-- Created with Inkscape (http://www.inkscape.org/) -->

<svg
   width="1280"
   height="720"
   viewBox="0 0 338.66667 190.5"
   version="1.1"
   id="svg1"
   sodipodi:docname="background.svg"
   inkscape:version="1.4.2 (f4327f4, 2025-05-13)"
   inkscape:export-filename="background.png"
   inkscape:export-xdpi="96"
   inkscape:export-ydpi="96"
   xmlns:inkscape="http://www.inkscape.org/namespaces/inkscape"
   xmlns:sodipodi="http://sodipodi.sourceforge.net/DTD/sodipodi-0.dtd"
   xmlns:xlink="http://www.w3.org/1999/xlink"
   xmlns="http://www.w3.org/2000/svg"
   xmlns:svg="http://www.w3.org/2000/svg">
  <sodipodi:namedview
     id="namedview1"
     pagecolor="#ffffff"
     bordercolor="#000000"
     borderopacity="0.25"
     inkscape:showpageshadow="2"
     inkscape:pageopacity="0.0"
     inkscape:pagecheckerboard="0"
     inkscape:deskcolor="#d1d1d1"
     inkscape:document-units="px"
     inkscape:zoom="1"
     inkscape:cx="567"
     inkscape:cy="408.5"
     inkscape:window-width="1755"
     inkscape:window-height="1401"
     inkscape:window-x="-6"
     inkscape:window-y="0"
     inkscape:window-maximized="0"
     inkscape:current-layer="svg1"
     showguides="true" />
  <defs
     id="defs1">
    <linearGradient
       id="linearGradient4"
       inkscape:collect="always">
      <stop
         style="stop-color:#d5f6ff;stop-opacity:1"
         offset="0"
         id="stop4" />
      <stop
         style="stop-color:#00ccff;stop-opacity:1"
         offset="1"
         id="stop5" />
    </linearGradient>
    <linearGradient
       inkscape:collect="always"
       xlink:href="#linearGradient4"
       id="linearGradient5"
       x1="173.99248"
       y1="190.83044"
       x2="174.36664"
       y2="-63.610149"
       gradientUnits="userSpaceOnUse" />
  </defs>
  <g
     inkscape:label="backdrop"
     inkscape:groupmode="layer"
     id="layer1">
    <rect
       style="fill:url(#linearGradient5);stroke-width:0.267671;stroke-dasharray:none;fill-opacity:1"
       id="rect1"
       width="338.66666"
       height="190.5"
       x="0"
       y="0.0010335154" />
  </g>
  <path
     id="path5-1"
     style="fill:#f9f9f9;stroke-width:0.222445;fill-opacity:1"
     d="M 265.68249 37.143469 A 20.205576 20.205576 0 0 0 247.68979 48.154684 A 13.844562 13.844562 0 0 0 244.41712 47.76246 A 13.844562 13.844562 0 0 0 231.35642 57.015125 A 8.7931671 8.7931671 0 0 0 227.34375 56.046192 A 8.7931671 8.7931671 0 0 0 218.55049 64.839453 A 8.7931671 8.7931671 0 0 0 227.34375 73.632715 A 8.7931671 8.7931671 0 0 0 233.93869 70.655119 A 13.844562 13.844562 0 0 0 244.41712 75.451726 A 13.844562 13.844562 0 0 0 252.61662 72.762484 A 20.205576 20.205576 0 0 0 265.68249 77.554956 A 20.205576 20.205576 0 0 0 276.31388 74.531368 A 13.844562 13.844562 0 0 0 287.83876 80.704118 A 13.844562 13.844562 0 0 0 299.2577 74.688465 A 8.7931671 8.7931671 0 0 0 304.25792 76.248576 A 8.7931671 8.7931671 0 0 0 313.05118 67.455314 A 8.7931671 8.7931671 0 0 0 304.25792 58.662053 A 8.7931671 8.7931671 0 0 0 299.79462 59.879549 A 13.844562 13.844562 0 0 0 287.83876 53.015369 A 13.844562 13.844562 0 0 0 285.46165 53.221041 A 20.205576 20.205576 0 0 0 265.68249 37.143469 z " />
  <path
     id="path6"
     style="fill:#f9f9f9;stroke-width:0.267758"
     d="m 213.51823,127.27664 c -1.88279,0.007 -3.72138,0.55512 -5.28443,1.57509 -1.35105,-5.36622 -6.29736,-9.14315 -11.98273,-9.14983 -1.61705,3e-4 -3.21831,0.30914 -4.71289,0.90899 -1.58853,-6.82435 -7.82285,-11.67422 -15.02337,-11.68714 -1.33404,7.6e-4 -2.66235,0.1696 -3.9517,0.5023 -2.56387,-10.204672 -11.96762,-17.389007 -22.77794,-17.402042 -2.94596,0.0077 -5.86411,0.554157 -8.60206,1.610754 -5.23394,-9.107536 -15.12528,-14.754787 -25.86043,-14.764474 v 3.5e-4 c -14.9393,0.0051 -27.541499,10.809159 -29.408027,25.211902 -3.085647,-1.81513 -6.622333,-2.77814 -10.22935,-2.78536 -7.023703,4e-5 -13.523444,3.61011 -17.087846,9.49089 -3.041089,-2.16406 -6.680841,-3.32692 -10.413318,-3.32693 -8.682679,-1.5e-4 -16.122245,6.21094 -17.672306,14.75414 -1.675789,-0.89034 -3.544422,-1.35594 -5.442045,-1.35599 -5.933868,-4e-5 -10.91096,4.47827 -11.535214,10.37921 -1.027893,-0.4294 -2.130784,-0.65054 -3.244763,-0.6506 -4.2895843,-2e-5 -7.8933153,3.22513 -8.3674477,7.48843 0.02303,-0.003 0.046325,-0.005 0.07028,-0.005 l 220.9125767,-0.047 c 0.0646,-3.32111 -4.1154,-10.74764 -9.38699,-10.74764 z"
     sodipodi:nodetypes="cccccccccccccccccccscc" />
  <path
     id="path7"
     style="vector-effect:non-scaling-stroke;fill:#f2f2f2;fill-opacity:1;stroke:none;stroke-width:0.264583;stroke-dasharray:none;-inkscape-stroke:hairline"
     d="m 156.3827,99.18051 c -6.33762,0.11693 -11.90175,3.31133 -17.00154,11.57604 -6.78999,11.00385 -17.11058,9.64799 -21.88962,8.60619 0,0 -11.41204,-1.49683 -13.09584,10.85102 l -0.18656,7.8357 39.63583,-0.008 79.06081,-0.0615 c 0.0268,-3.34243 -4.13936,-10.70322 -9.38755,-10.70322 -1.88279,0.007 -3.72138,0.55513 -5.28443,1.5751 -1.35105,-5.36622 -6.29736,-9.14315 -11.98273,-9.14983 -1.61705,3e-4 -3.21831,0.30914 -4.71289,0.90899 -1.58853,-6.82435 -7.82285,-11.67423 -15.02337,-11.68715 -1.33404,7.6e-4 -2.66235,0.1696 -3.9517,0.5023 -0.73363,-2.91997 -2.02739,-5.59231 -3.19883,-6.90159 -1.5e-4,-1.9e-4 -6.64395,-3.46071 -12.98158,-3.34378 z"
     sodipodi:nodetypes="ssccccccccccccss" />
  <path
     id="path9"
     style="vector-effect:non-scaling-stroke;fill:#f2f2f2;fill-opacity:1;stroke:none;stroke-width:0.264583;stroke-dasharray:none;-inkscape-stroke:hairline"
     d="m 287.83876,53.015369 c -3.45235,-0.249609 -5.62302,3.037021 -7.27189,5.56849 -0.9958,2.068988 -2.4724,3.984123 -4.69035,4.812713 -3.32531,1.389828 -7.04136,1.79237 -10.59843,1.336337 -5.01594,-0.262918 -10.00765,2.582832 -12.19472,7.135772 -1.44287,2.217637 3.60081,2.937462 4.67144,4.066219 5.9351,2.535615 13.07997,2.078423 18.55904,-1.403528 3.62008,5.5999 11.49729,7.82854 17.47077,4.806425 2.30865,-0.900608 4.15592,-3.187041 5.70706,-4.494659 4.02538,2.740951 10.13016,1.278391 12.41469,-3.059916 2.65101,-4.366149 0.47263,-10.660477 -4.30974,-12.460741 -2.50455,-1.035979 -5.47647,-0.840773 -7.80256,0.557074 -2.4506,-4.132948 -7.08227,-6.930154 -11.95531,-6.864186 z" />
</svg>
