<?xml version="1.0" encoding="UTF-8" standalone="no"?>
<!-- Created with Inkscape (http://www.inkscape.org/) -->

<svg
   width="400"
   height="600"
   viewBox="0 0 105.83333 158.75"
   version="1.1"
   id="svg1"
   sodipodi:docname="character.svg"
   inkscape:version="1.4.2 (f4327f4, 2025-05-13)"
   xmlns:inkscape="http://www.inkscape.org/namespaces/inkscape"
   xmlns:sodipodi="http://sodipodi.sourceforge.net/DTD/sodipodi-0.dtd"
   xmlns="http://www.w3.org/2000/svg"
   xmlns:svg="http://www.w3.org/2000/svg">
  <sodipodi:namedview
     id="namedview1"
     pagecolor="#ffffff"
     bordercolor="#000000"
     borderopacity="0.25"
     inkscape:showpageshadow="2"
     inkscape:pageopacity="0.0"
     inkscape:pagecheckerboard="false"
     inkscape:deskcolor="#d1d1d1"
     inkscape:document-units="mm"
     showgrid="true"
     inkscape:zoom="0.70710678"
     inkscape:cx="799.73777"
     inkscape:cy="16.263456"
     inkscape:window-width="1718"
     inkscape:window-height="1401"
     inkscape:window-x="-7"
     inkscape:window-y="0"
     inkscape:window-maximized="0"
     inkscape:current-layer="layer2"
     showguides="true" />
  <defs
     id="defs1">
    <inkscape:path-effect
       effect="fillet_chamfer"
       id="path-effect31"
       is_visible="true"
       lpeversion="1"
       nodesatellites_param="F,0,0,1,0,0,0,1 @ F,0,0,1,0,0,0,1 @ F,0,0,1,0,0,0,1 @ F,0,0,1,0,0,0,1"
       radius="0"
       unit="px"
       method="auto"
       mode="F"
       chamfer_steps="1"
       flexible="false"
       use_knot_distance="true"
       apply_no_radius="true"
       apply_with_radius="true"
       only_selected="false"
       hide_knots="false" />
    <inkscape:path-effect
       effect="fillet_chamfer"
       id="path-effect30"
       is_visible="true"
       lpeversion="1"
       nodesatellites_param="F,0,0,1,0,0,0,1 @ F,0,0,1,0,0,0,1 @ F,0,0,1,0,0,0,1 @ F,0,0,1,0,0,0,1"
       radius="0"
       unit="px"
       method="auto"
       mode="F"
       chamfer_steps="1"
       flexible="false"
       use_knot_distance="true"
       apply_no_radius="true"
       apply_with_radius="true"
       only_selected="false"
       hide_knots="false" />
    <inkscape:path-effect
       effect="fillet_chamfer"
       id="path-effect29"
       is_visible="true"
       lpeversion="1"
       nodesatellites_param="C,0,0,1,0,0,0,1 @ C,0,0,1,0,0,0,1 @ C,0,0,1,0,0,0,1 @ C,0,0,1,0,0,0,1"
       radius="0"
       unit="px"
       method="auto"
       mode="F"
       chamfer_steps="1"
       flexible="false"
       use_knot_distance="true"
       apply_no_radius="true"
       apply_with_radius="true"
       only_selected="false"
       hide_knots="false" />
  </defs>
  <g
     inkscape:label="outline"
     inkscape:groupmode="layer"
     id="layer1">
    <path
       style="fill:none;stroke:#000000;stroke-width:0.264583"
       d="m 16.695625,37.01233 47.855903,0.788121 c 0,0 3.338219,-9.69832 -3.240006,-16.147242 -8.742091,-8.570255 -29.932216,-13.2403789 -41.95626,1.723214 -2.522574,3.139273 -2.830619,13.452455 -2.659637,13.635907 z"
       id="path1"
       sodipodi:nodetypes="ccssc" />
    <path
       style="fill:none;stroke:#000000;stroke-width:0.264583"
       d="m 63.776383,37.018168 c 0,0 26.742266,20.056697 -46.480601,0 z"
       id="path2" />
    <path
       style="fill:none;stroke:#000000;stroke-width:0.264583"
       d="m 16.977422,36.699805 c 0,0 1.591798,18.4649 12.734411,28.015708 4.553367,3.902884 22.427175,6.463091 27.666334,-0.15739 7.581665,-9.580595 6.716576,-27.858318 6.716576,-27.858318 z"
       id="path3"
       sodipodi:nodetypes="csscc" />
    <path
       style="fill:none;stroke:#000000;stroke-width:0.264583"
       d="m 37.279618,68.3105 -17.853896,3.766399 -1.755021,42.471511 49.140601,-0.351 0.249778,-43.335228 -18.704453,-2.248001 z"
       id="path4"
       sodipodi:nodetypes="ccccccc" />
    <path
       style="fill:none;stroke:#000000;stroke-width:0.264583"
       d="m 17.145636,114.39662 1.976321,31.62113 12.846086,-0.32939 10.540376,-25.69217 9.881605,24.70401 13.175472,-1.64693 0.98816,-29.64482 z"
       id="path5" />
    <path
       style="fill:none;stroke:#000000;stroke-width:0.264583"
       d="m 18.463183,145.02959 1.976321,6.25835 19.763208,0.98816 v -6.58774 z"
       id="path6" />
    <path
       style="fill:none;stroke:#000000;stroke-width:0.264583"
       d="m 52.060636,144.04143 22.398302,-0.32939 -1.317546,8.23467 -20.42198,-0.98816 z"
       id="path7" />
    <path
       style="fill:none;stroke:#000000;stroke-width:0.264583"
       d="m 19.121957,72.235108 c 0,0 -38.208869,19.43382 -2.635095,35.244382 l 2.635095,-12.516692 c 0,0 -18.44566063,-0.98816 0,-14.163632 z"
       id="path8" />
    <path
       style="fill:none;stroke:#000000;stroke-width:0.264583"
       d="m 67.050424,70.21895 c 0,0 8.044472,35.05848 26.432799,17.887782 l 2.283108,12.984508 c 0,0 -28.237813,10.05379 -28.822136,-16.364694 z"
       id="path9"
       sodipodi:nodetypes="ccccc"
       inkscape:transform-center-x="-0.58340565"
       inkscape:transform-center-y="0.3741779" />
    <path
       style="fill:none;stroke:#000000;stroke-width:0.264583"
       d="m 18.463183,94.633411 8.23467,-0.988161 1.317548,7.24651 -2.635094,7.90528 -7.24651,3.95264 -2.305708,-6.25835 z"
       id="path10" />
    <path
       style="fill:none;stroke:#000000;stroke-width:0.264583"
       d="m 93.144598,86.015011 5.289696,-3.219812 2.299866,5.519679 2.29987,10.119416 -2.75985,2.989826 -4.36974,-0.61313 z"
       id="path11"
       sodipodi:nodetypes="ccccccc" />
  </g>
  <g
     inkscape:groupmode="layer"
     id="g28"
     inkscape:label="back_leg">
    <path
       id="path25"
       style="fill:#214478;fill-opacity:1;stroke:#000000;stroke-width:4.23333;stroke-dasharray:none"
       d="m 239.7669,122.39371 c -0.0702,2.03459 3.04462,10.87137 3.41929,16.63502 0.2399,3.69051 -0.56832,10.3772 -0.97203,13.38678 h -0.0579 c -3.01589,2.17039 -2.79124,2.48705 -2.76934,5.62963 v 1.10484 l 7.65276,0.001 0.006,-0.99529 15.12414,0.83251 c 0.0955,-0.23563 0.22459,-0.4888 -0.0336,-0.82475 l 0.003,-0.0117 c 1.29503,-0.31036 1.37678,-4.54006 -2.21221,-6.21326 -2.56526,-1.9079 -9.49465,-0.27341 -11.23291,0.29714 0.88892,-3.12389 2.62172,-9.82593 2.29289,-13.55989 -0.49412,-5.6109 -2.40761,-15.92616 -2.40761,-15.92616"
       sodipodi:nodetypes="cscccccccccccsc" />
    <path
       style="fill:#162d50;fill-opacity:1;stroke-width:0.529167"
       d="m 239.65021,122.27661 c 0,0 3.16135,10.9884 3.53602,16.75205 0.31611,4.86288 -1.18781,14.92773 -1.18781,14.92773 l 6.19581,-0.0321 c 0,0 3.23168,-10.26659 2.79293,-15.24875 -0.49412,-5.6109 -2.4073,-15.92612 -2.4073,-15.92612"
       id="path26"
       sodipodi:nodetypes="csccsc" />
    <path
       style="fill:#554400;fill-opacity:1;stroke:#000000;stroke-width:0.52916667;stroke-dasharray:none"
       d="m 259.92724,151.93848 c 3.72633,1.73723 3.4576,6.24278 2.02325,6.24278 l -22.56377,-0.1362 c -0.0219,-3.14258 -0.2465,-3.4592 2.76939,-5.62959 l 6.13884,-0.0139 c 0,0 8.70063,-2.6435 11.63229,-0.46309 z"
       id="path27"
       sodipodi:nodetypes="cccccc" />
    <path
       style="fill:#000000;fill-opacity:1;stroke:none;stroke-width:2.08638;stroke-dasharray:none"
       d="m 239.38715,158.01107 -1.6e-4,1.13903 7.65276,6.6e-4 0.006,-0.99495 15.12417,0.83263 c 0.0955,-0.23563 0.22488,-0.48889 -0.0333,-0.82484 z"
       id="path28"
       sodipodi:nodetypes="ccccccc" />
  </g>
  <g
     inkscape:groupmode="layer"
     id="g19"
     inkscape:label="back_arm"
     transform="translate(31.220833)">
    <path
       style="baseline-shift:baseline;display:inline;overflow:visible;opacity:1;vector-effect:none;enable-background:accumulate;stop-color:#000000;stop-opacity:1"
       d="m 221.97461,66.998047 c 0,0 -4.23043,3.914731 -8.16992,9.029297 -1.96975,2.557282 -3.88381,5.420682 -5.1875,8.363281 -1.3037,2.942599 -2.0669,6.038754 -1.2461,9.017578 0.59124,2.145706 2.15122,3.681626 3.88672,4.910156 1.73551,1.228531 3.74404,2.176781 5.67188,2.939451 2.99555,1.18507 4.67681,1.51308 5.79687,1.77735 0.26127,0.98925 0.88978,1.8746 1.86914,2.33007 l 3.64649,1.69532 c 1.74401,0.8111 3.88982,0.0297 4.70117,-1.71485 l 3.2207,-6.927731 c 0.81128,-1.744395 0.0266,-3.888397 -1.71679,-4.699219 l -3.64649,-1.697266 c -1.42141,-0.661052 -3.07115,-0.224786 -4.08594,0.888672 -0.87354,-0.287831 -1.6643,-0.498245 -2.72656,-1.02539 -0.81805,-0.40596 -1.56754,-0.877663 -2.04101,-1.296875 -0.47348,-0.419213 -0.59447,-0.72524 -0.60157,-0.771485 0.0302,0.196796 -0.0216,0.03018 0.24024,-0.359375 0.26189,-0.389551 0.74653,-0.909668 1.27148,-1.375 1.04991,-0.930663 2.1836,-1.638672 2.1836,-1.638672 l -2.22657,-3.601562 c 0,0 -1.387,0.850221 -2.76562,2.072265 -0.68931,0.611023 -1.39616,1.316359 -1.97656,2.179688 -0.58041,0.863329 -1.12473,1.978179 -0.91211,3.363281 0.22164,1.443882 1.07586,2.49985 1.98046,3.300781 0.90461,0.800932 1.93581,1.407308 2.96485,1.917969 2.05808,1.021323 4.12315,1.634615 4.9375,1.863281 l 1.73242,0.488282 0.87109,-1.873047 2.38672,1.109375 -2.63476,5.666018 -3.01758,-1.40235 c 0.23979,0.11153 0.2592,0.4271 0.25586,0.69922 l -3.58789,-1.77929 2.22461,-1.04102 c 0,0 -3.32165,-0.713792 -6.78516,-2.083984 -1.73175,-0.685097 -3.48257,-1.538862 -4.78516,-2.460938 -1.30258,-0.922076 -2.0608,-1.884412 -2.25195,-2.578125 -0.42071,-1.526842 -0.0537,-3.720082 1.03516,-6.177734 1.08884,-2.457653 2.83081,-5.105874 4.67187,-7.496094 3.68213,-4.780439 6.20508,-9.963021 6.20508,-9.963021 z"
       id="path18"
       sodipodi:nodetypes="csssssccccccccsscssccssssscccccccccssssscc" />
    <path
       style="fill:#162d50;fill-opacity:1;stroke:none;stroke-width:2.11667;stroke-dasharray:none"
       d="m 223.41323,68.54978 c 0,0 -16.48463,15.284369 -14.0016,24.295701 1.56478,5.678836 15.42057,8.630489 15.42057,8.630489 l 3.08891,-5.890305 c 0,0 -8.14983,-2.075669 -8.66762,-5.448839 -0.36482,-2.376613 4.67423,-5.493999 4.67423,-5.493999"
       id="path19"
       sodipodi:nodetypes="csccsc" />
    <rect
       style="fill:#deaa87;fill-opacity:1;stroke:#000000;stroke-width:0.529167;stroke-dasharray:none"
       id="rect19"
       width="6.8658628"
       height="10.481765"
       x="246.65938"
       y="-11.770658"
       ry="1.4217291"
       transform="rotate(24.941639)" />
  </g>
  <g
     inkscape:groupmode="layer"
     id="layer4"
     inkscape:label="torso">
    <rect
       style="fill:#ffd42a;fill-opacity:1;stroke:#000000;stroke-width:2.11667;stroke-dasharray:none"
       id="rect41"
       width="33.75885"
       height="48.936069"
       x="221.6548"
       y="66.65136"
       ry="1.7445514" />
    <path
       style="fill:#5f8dd3;fill-opacity:1;stroke:#000000;stroke-width:1.05833;stroke-dasharray:none"
       d="m 236.88518,67.108307 7.08224,18.984847 6.06067,-18.984847 z"
       id="path42"
       sodipodi:nodetypes="cccc" />
    <path
       style="fill:#5f8dd3;fill-opacity:1;stroke:#000000;stroke-width:1.05833;stroke-dasharray:none"
       d="m 226.33422,67.178009 c 1.48415,-0.122694 5.28825,26.154552 -4.11911,20.511321 l 0.0319,-20.492476 z"
       id="path43"
       sodipodi:nodetypes="cccc" />
    <path
       id="path46"
       style="fill:#93a7ac;fill-opacity:1;stroke:#000000;stroke-width:0.264583;stroke-dasharray:none"
       d="m 229.91504,67.44963 c 3.09203,8.461234 4.55185,17.236548 3.3096,26.610262 h -10.5633 v 3.613733 h 31.85947 V 67.53471 l -2.97488,-0.0097 c 1.8136,10.051508 1.30675,18.903282 -0.49432,26.435646 l -13.99402,0.09922 c 0.54188,-9.100773 -0.80104,-17.988847 -3.45975,-26.632393 z"
       sodipodi:nodetypes="ccccccccccc" />
    <rect
       style="fill:#93a7ac;fill-opacity:1;stroke:#000000;stroke-width:0.264583;stroke-dasharray:none"
       id="rect50"
       width="31.933561"
       height="4.0834789"
       x="222.5699"
       y="104.96053" />
    <path
       style="fill:none;fill-opacity:1;stroke:#000000;stroke-width:1.05833;stroke-dasharray:none"
       d="m 244.24241,85.220458 c 0,0 -0.8475,1.619787 -1.32012,5.833381 -0.47892,4.269786 -0.29285,23.664001 -0.29285,23.664001"
       id="path49"
       sodipodi:nodetypes="csc" />
    <path
       style="fill:#5f8dd3;fill-opacity:1;stroke:#000000;stroke-width:1.05833;stroke-dasharray:none"
       d="m 242.5916,110.85199 0.0375,4.2412 5.39073,0.0577 c -0.15699,0.434 -5.58578,-1.50385 -5.42822,-4.52867 z"
       id="path50"
       sodipodi:nodetypes="ccccc" />
    <path
       style="fill:#5f8dd3;fill-opacity:1;stroke:#000000;stroke-width:1.05833;stroke-dasharray:none"
       d="m 242.58849,110.7895 -0.0519,4.30115 -5.99378,0.0377 c 0.17542,0.434 6.22173,-1.31401 6.04567,-4.33883 z"
       id="path51"
       sodipodi:nodetypes="ccccc" />
    <path
       style="fill:#214478;fill-opacity:1;stroke:#000000;stroke-width:2.11667;stroke-dasharray:none"
       d="m 222.63596,115.22463 31.65881,0.11187 c -1.37421,9.82473 -2.68517,10.41264 -15.26622,10.38959 -11.23179,-0.0206 -15.22544,0.67889 -16.39259,-10.50146 z"
       id="path55"
       sodipodi:nodetypes="ccsc" />
    <path
       id="rect55"
       style="fill:#504416;stroke:#000000;stroke-width:0.529167"
       d="m 223.43984,115.91876 29.89915,0.22424 -0.51136,3.21228 -28.71651,-0.16931 z"
       sodipodi:nodetypes="ccccc" />
    <path
       id="rect56"
       style="fill:#808080;fill-opacity:1;stroke:#000000;stroke-width:0.264583;stroke-dasharray:none"
       d="m 240.47339,116.15349 v 3.11897 h 4.9393 v -3.11897 z m 0.69622,0.54355 h 3.54669 v 2.03203 h -3.54669 z" />
    <rect
       style="fill:#808080;fill-opacity:1;stroke:#000000;stroke-width:0.264583;stroke-dasharray:none"
       id="rect57"
       width="1.5329655"
       height="0.48776177"
       x="243.46091"
       y="117.51575" />
    <rect
       style="fill:#214478;fill-opacity:1;stroke:#000000;stroke-width:0.264583;stroke-dasharray:none"
       id="rect58"
       width="0.83248162"
       height="3.0867648"
       x="249.54276"
       y="116.13955" />
    <rect
       style="fill:#214478;fill-opacity:1;stroke:#000000;stroke-width:0.264583;stroke-dasharray:none"
       id="rect59"
       width="0.83248162"
       height="3.0867648"
       x="226.29802"
       y="116.13955" />
    <rect
       style="fill:#214478;fill-opacity:1;stroke:#000000;stroke-width:0.264583;stroke-dasharray:none"
       id="rect60"
       width="0.83248162"
       height="3.0867648"
       x="236.26416"
       y="116.13955" />
    <path
       style="fill:#5f8dd3;fill-opacity:1;stroke:none;stroke-width:4.23333;stroke-dasharray:none"
       d="m 242.02866,113.27164 c 0.3519,-0.37912 0.72278,-0.39763 1.11366,-0.0362 0.15866,0.3248 0.0837,0.67402 0.0369,1.00356 l -1.20982,-0.004 c -0.0501,-0.33914 0.009,-0.63339 0.0592,-0.96336 z"
       id="path20"
       sodipodi:nodetypes="cccccc" />
    <path
       id="path30"
       style="fill:#000000;fill-opacity:0.154062;stroke:none;stroke-width:1.05833;stroke-dasharray:none"
       d="m 221.65468,78.54487 0.71328,34.12238 c 0.0221,1.0563 0.25557,1.94809 1.45897,1.94809 h 0.44655 l 0.46971,-0.10559 V 84.973216 l 3e-5,1.202255 -1.06179,-1.60916 z"
       sodipodi:nodetypes="csscccccc" />
    <path
       id="path38"
       style="fill:#000000;fill-opacity:0.20168068;stroke:none;stroke-width:1.05833;stroke-dasharray:none"
       d="m 222.63602,115.22449 c 0.53452,5.12024 1.66156,7.74883 3.80546,9.09609 h 5.1e-4 l 0.23978,-0.231 4.19096,-1.33118 c 0,0 -2.53775,-1.19601 -2.97512,-1.64939 -0.45602,-0.40925 -1.21584,-5.28766 -1.21584,-5.28766 l -2.46807,-0.59117 z"
       sodipodi:nodetypes="ccccccccc" />
  </g>
  <g
     inkscape:groupmode="layer"
     id="layer6"
     inkscape:label="front_leg"
     style="display:inline">
    <path
       id="path23"
       style="fill:#214478;fill-opacity:1;stroke:#000000;stroke-width:4.23333;stroke-dasharray:none"
       d="m 228.12523,122.65829 c -0.0702,2.03459 3.04462,10.87137 3.41929,16.63502 0.2399,3.69051 -0.56832,10.3772 -0.97203,13.38678 h -0.0579 c -3.01589,2.17039 -2.79124,2.48705 -2.76934,5.62963 v 1.10484 l 7.65276,0.001 0.006,-0.99529 15.12414,0.83251 c 0.0955,-0.23563 0.22459,-0.4888 -0.0336,-0.82475 l 0.003,-0.0117 c 1.29503,-0.31036 1.37678,-4.54006 -2.21221,-6.21326 -2.56526,-1.9079 -9.49465,-0.27341 -11.23291,0.29714 0.88892,-3.12389 2.62172,-9.82593 2.29289,-13.55989 -0.49412,-5.6109 -2.40761,-15.92616 -2.40761,-15.92616"
       sodipodi:nodetypes="cscccccccccccsc" />
    <path
       style="fill:#214478;fill-opacity:1;stroke-width:0.529167"
       d="m 228.00854,122.54119 c 0,0 3.16135,10.9884 3.53602,16.75205 0.31611,4.86288 -1.18781,14.92773 -1.18781,14.92773 l 6.19581,-0.0321 c 0,0 3.23168,-10.26659 2.79293,-15.24875 -0.49412,-5.6109 -2.4073,-15.92612 -2.4073,-15.92612"
       id="path12"
       sodipodi:nodetypes="csccsc" />
    <path
       style="fill:#806600;fill-opacity:1;stroke:#000000;stroke-width:0.529167;stroke-dasharray:none"
       d="m 248.28557,152.20306 c 3.72633,1.73723 3.4576,6.24278 2.02325,6.24278 l -22.56377,-0.1362 c -0.0219,-3.14258 -0.2465,-3.4592 2.76939,-5.62959 l 6.13884,-0.0139 c 0,0 8.70063,-2.6435 11.63229,-0.46309 z"
       id="path13"
       sodipodi:nodetypes="cccccc" />
    <path
       style="fill:#000000;fill-opacity:1;stroke:none;stroke-width:2.08638;stroke-dasharray:none"
       d="m 227.74548,158.27565 -1.6e-4,1.13903 7.65276,6.6e-4 0.006,-0.99495 15.12417,0.83263 c 0.0955,-0.23563 0.22488,-0.48889 -0.0333,-0.82484 z"
       id="path14"
       sodipodi:nodetypes="ccccccc" />
    <path
       id="path31"
       style="fill:#000000;fill-opacity:0.2044818;stroke:none;stroke-width:1.05833;stroke-dasharray:none"
       d="m 228.0083,122.54136 c 0,0 3.16155,10.9883 3.53622,16.75195 0.2399,3.69051 -0.56832,10.3772 -0.97203,13.38678 h -0.0579 c -3.01589,2.17039 -2.79124,2.48705 -2.76934,5.62963 l 2.34818,0.0139 c -0.0118,-0.0573 -0.0247,-0.11354 -0.0382,-0.16898 -0.66146,-2.71198 2.77812,-5.42396 2.77812,-5.42396 l 1.52136,-8.86354 c -0.69783,-10.46752 -3.62355,-21.18166 -3.62355,-21.18166 z"
       sodipodi:nodetypes="csccccccccc" />
  </g>
  <g
     inkscape:groupmode="layer"
     id="layer5"
     inkscape:label="front_arm"
     style="display:inline">
    <path
       style="baseline-shift:baseline;display:inline;overflow:visible;opacity:1;vector-effect:none;enable-background:accumulate;stop-color:#000000;stop-opacity:1"
       d="m 221.97461,66.998047 c 0,0 -4.23043,3.914731 -8.16992,9.029297 -1.96975,2.557282 -3.88381,5.420682 -5.1875,8.363281 -1.3037,2.942599 -2.0669,6.038754 -1.2461,9.017578 0.59124,2.145706 2.15122,3.681626 3.88672,4.910156 1.73551,1.228531 3.74404,2.176781 5.67188,2.939451 2.99555,1.18507 4.67681,1.51308 5.79687,1.77735 0.26127,0.98925 0.88978,1.8746 1.86914,2.33007 l 3.64649,1.69532 c 1.74401,0.8111 3.88982,0.0297 4.70117,-1.71485 l 3.2207,-6.927731 c 0.81128,-1.744395 0.0266,-3.888397 -1.71679,-4.699219 l -3.64649,-1.697266 c -1.42141,-0.661052 -3.07115,-0.224786 -4.08594,0.888672 -0.87354,-0.287831 -1.6643,-0.498245 -2.72656,-1.02539 -0.81805,-0.40596 -1.56754,-0.877663 -2.04101,-1.296875 -0.47348,-0.419213 -0.59447,-0.72524 -0.60157,-0.771485 0.0302,0.196796 -0.0216,0.03018 0.24024,-0.359375 0.26189,-0.389551 0.74653,-0.909668 1.27148,-1.375 1.04991,-0.930663 2.1836,-1.638672 2.1836,-1.638672 l -2.22657,-3.601562 c 0,0 -1.387,0.850221 -2.76562,2.072265 -0.68931,0.611023 -1.39616,1.316359 -1.97656,2.179688 -0.58041,0.863329 -1.12473,1.978179 -0.91211,3.363281 0.22164,1.443882 1.07586,2.49985 1.98046,3.300781 0.90461,0.800932 1.93581,1.407308 2.96485,1.917969 2.05808,1.021323 4.12315,1.634615 4.9375,1.863281 l 1.73242,0.488282 0.87109,-1.873047 2.38672,1.109375 -2.63476,5.666018 -3.01758,-1.40235 c 0.23979,0.11153 0.2592,0.4271 0.25586,0.69922 l -3.58789,-1.77929 2.22461,-1.04102 c 0,0 -3.32165,-0.713792 -6.78516,-2.083984 -1.73175,-0.685097 -3.48257,-1.538862 -4.78516,-2.460938 -1.30258,-0.922076 -2.0608,-1.884412 -2.25195,-2.578125 -0.42071,-1.526842 -0.0537,-3.720082 1.03516,-6.177734 1.08884,-2.457653 2.83081,-5.105874 4.67187,-7.496094 3.68213,-4.780439 6.20508,-9.963021 6.20508,-9.963021 z"
       id="path17"
       sodipodi:nodetypes="csssssccccccccsscssccssssscccccccccssssscc" />
    <path
       style="fill:#5f8dd3;fill-opacity:1;stroke:none;stroke-width:2.11667;stroke-dasharray:none"
       d="m 223.41323,68.54978 c 0,0 -16.48463,15.284369 -14.0016,24.295701 1.56478,5.678836 15.42057,8.630489 15.42057,8.630489 l 3.08891,-5.890305 c 0,0 -8.14983,-2.075669 -8.66762,-5.448839 -0.36482,-2.376613 4.67423,-5.493999 4.67423,-5.493999"
       id="path29"
       sodipodi:nodetypes="csccsc" />
    <rect
       style="fill:#ffccaa;fill-opacity:1;stroke:#000000;stroke-width:0.52916667;stroke-dasharray:none"
       id="rect1"
       width="6.8658628"
       height="10.481765"
       x="246.65938"
       y="-11.770658"
       ry="1.4217291"
       transform="rotate(24.941639)" />
    <path
       id="path24"
       style="display:inline;fill:#000000;fill-opacity:0.154062;stroke:none;stroke-width:1.05833;stroke-dasharray:none"
       d="m 223.3365,67.214056 c -3.14635,3.075249 -16.09408,17.759455 -13.92499,25.63144 1.56478,5.678836 15.42076,8.630484 15.42076,8.630484 l 0.52917,-1.00924 -1.60352,-0.748279 c -14.01727,-4.744376 -12.49041,-9.495374 -12.49066,-9.49529 1.13707,-7.132187 12.61445,-21.182537 12.69199,-21.402655 0.0801,-0.258694 -0.0271,-1.482954 -0.0271,-1.482954 z"
       sodipodi:nodetypes="csccccccc" />
    <path
       id="path39"
       style="fill:#000000;fill-opacity:0.148459;stroke:none;stroke-width:1.05833;stroke-dasharray:none"
       d="m 225.21158,100.66982 -0.4129,0.88729 c -0.33214,0.71418 -0.0248,1.55663 0.68937,1.88877 l 3.64732,1.69602 c 0.71418,0.33215 1.64612,0.06 1.88877,-0.68936 l 0.0991,-0.30616 c 0,0 -4.76862,-2.18258 -5.33086,-2.4637 -0.56224,-0.20671 -0.58084,-1.01286 -0.58084,-1.01286 z"
       sodipodi:nodetypes="ccccsccc" />
  </g>
  <g
     inkscape:groupmode="layer"
     id="layer3"
     inkscape:label="head"
     style="display:inline">
    <rect
       style="fill:#ffccaa;fill-opacity:1;stroke:#000000;stroke-width:2.11667;stroke-dasharray:none"
       id="rect29"
       width="60.845192"
       height="50.792503"
       x="208.27682"
       y="15.750018"
       sodipodi:type="rect"
       ry="6.8138909" />
    <rect
       style="fill:#f9f9f9;fill-opacity:1;stroke:#000000;stroke-width:1.05833;stroke-dasharray:none"
       id="rect31"
       width="10.946329"
       height="16.131432"
       x="233.7379"
       y="27.383951"
       ry="2.6001315" />
    <path
       id="rect32"
       style="fill:#000000;fill-opacity:1;stroke:none;stroke-width:2.11667;stroke-dasharray:none"
       d="m 240.50798,34.873717 c -0.81728,0 -1.47536,0.658075 -1.47536,1.475363 v 6.202205 c 0,0.369221 0.13398,0.70607 0.35657,0.964282 h 2.69492 c 1.44048,0 2.60036,-1.159885 2.60036,-2.600358 v -5.724198 c -0.25133,-0.198853 -0.56993,-0.317294 -0.91674,-0.317294 z" />
    <rect
       style="fill:#f9f9f9;fill-opacity:1;stroke:#000000;stroke-width:1.05833;stroke-dasharray:none"
       id="rect33"
       width="10.946329"
       height="16.131432"
       x="254.55515"
       y="27.383951"
       ry="2.6001315" />
    <path
       id="path33"
       style="fill:#000000;fill-opacity:1;stroke:none;stroke-width:2.11667;stroke-dasharray:none"
       d="m 261.32522,34.873717 c -0.81728,0 -1.47536,0.658075 -1.47536,1.475363 v 6.202205 c 0,0.369221 0.13398,0.70607 0.35657,0.964282 h 2.69492 c 1.44048,0 2.60036,-1.159885 2.60036,-2.600358 v -5.724198 c -0.25133,-0.198853 -0.56993,-0.317294 -0.91674,-0.317294 z" />
    <path
       style="fill:none;fill-opacity:1;stroke:#000000;stroke-width:1.05833;stroke-dasharray:none"
       d="m 222.57239,35.732085 c 0,0 -3.44405,-1.004518 -6.1706,1.004517 -2.72654,2.009031 1.29152,8.466637 1.29152,8.466637 0,0 2.72655,4.161568 5.59659,-1.004517"
       id="path34" />
    <path
       style="fill:#000000;fill-opacity:1;stroke:#000000;stroke-width:1.05833;stroke-dasharray:none"
       d="M 264.24221,57.410286 H 239.01933"
       id="path35" />
    <path
       style="fill:none;fill-opacity:1;stroke:#000000;stroke-width:0.529167;stroke-dasharray:none"
       d="m 220.54382,38.618572 c 0,0 -2.19521,0.201298 -2.15752,3.130139 0.01,0.760714 2.76778,1.280645 2.76778,1.280645"
       id="path36"
       sodipodi:nodetypes="csc" />
    <path
       style="fill:none;fill-opacity:1;stroke:#000000;stroke-width:1.05833;stroke-dasharray:none"
       d="m 251.3821,43.272868 c 0,0 4.20026,6.526227 1.3637,6.693987 -2.83656,0.167761 -3.9418,-0.280049 -3.9418,-0.280049"
       id="path44" />
    <path
       id="path22"
       style="fill:#000000;fill-opacity:0.154062;stroke:none;stroke-width:1.05833;stroke-dasharray:none"
       d="m 215.09075,15.749943 c -3.7749,0 -6.81406,3.039159 -6.81406,6.814054 v 37.164657 c 0,3.41301 2.48425,6.22421 5.75056,6.731889 l -0.18501,-0.605131 c -0.60641,0.555877 -2.42772,-35.760901 0,-39.061182 1.1158,-2.67806 57.68143,-1.160469 55.19147,0 v -5.336108 c -0.10451,-0.645492 -0.2991,-1.260032 -0.57051,-1.830379 -6e-5,-1.37e-4 6e-5,-3.81e-4 0,-5.17e-4 l -20.05511,-3.877283 z"
       sodipodi:nodetypes="ssscccccsccs" />
  </g>
  <g
     inkscape:groupmode="layer"
     id="layer2"
     inkscape:label="helmet"
     style="display:inline">
    <path
       id="path37"
       style="fill:#ffd42a;fill-opacity:1;stroke:#000000;stroke-width:2.11667;stroke-dasharray:none"
       d="m 239.57316,-11.695478 a 38.270901,31.823084 0 0 0 -38.27104,31.822864 38.270901,31.823084 0 0 0 0.0992,2.288232 h 75.7251 l 9.75599,0.171566 c -5.7568,-4.899407 -8.30468,-5.513825 -9.21597,-5.516459 a 38.270901,31.823084 0 0 0 -38.09329,-28.766203 z" />
    <path
       style="fill:none;fill-opacity:1;stroke:#000000;stroke-width:1.05833;stroke-dasharray:none"
       d="m 212.00709,10.118987 c 23.71672,-10.28003181 49.47619,-1.4538747 54.19481,3.028291"
       id="path40"
       sodipodi:nodetypes="cc" />
    <path
       style="fill:none;fill-opacity:1;stroke:#000000;stroke-width:1.05833;stroke-dasharray:none"
       d="M 213.47378,2.7855387 C 237.1905,-7.4944931 262.94997,1.331664 267.66859,5.8138297"
       id="path41"
       sodipodi:nodetypes="cc" />
    <path
       style="display:inline;fill:#000000;fill-opacity:0.148459;stroke:none;stroke-width:1.05833;stroke-dasharray:none"
       d="m 212.21236,10.511027 c 0,0 0.15883,0.766077 1.19738,0.429926 14.25077,-4.6125978 31.85194,-6.4375092 51.44687,2.551238 0.44846,0.205719 0.98672,0.03522 0.98672,0.03522 0.42408,-0.45976 -21.40195,-16.4355229 -53.63097,-3.016388 z"
       id="path21"
       sodipodi:nodetypes="cssccc" />
    <path
       style="display:inline;fill:#000000;fill-opacity:0.148459;stroke:none;stroke-width:1.05833;stroke-dasharray:none"
       d="m 213.6593,3.167786 c 0,0 0.0332,0.6410424 1.07336,0.3100367 14.35728,-4.5687595 31.99383,-6.3584242 51.44687,2.551238 0.44858,0.2054527 0.98704,0.2362627 1.13045,0.1660513 0.32641,-0.3104851 -21.4918,-15.96819 -53.65068,-3.027326 z"
       id="path45"
       sodipodi:nodetypes="csscc" />
    <path
       id="path47"
       style="font-variation-settings:normal;opacity:1;vector-effect:none;fill:#000000;fill-opacity:0.148459;stroke:none;stroke-width:1.05833;stroke-linecap:butt;stroke-linejoin:miter;stroke-miterlimit:4;stroke-dasharray:none;stroke-dashoffset:0;stroke-opacity:1;-inkscape-stroke:none"
       d="m 212.85367,-2.6561686 c -7.38639,5.9893685 -11.55178,14.2048126 -11.55175,22.7836226 5e-5,0.763487 0.0332,1.526725 0.0992,2.288232 h 7.90546 c -0.0746,-0.270925 -0.16951,-0.554842 -0.28577,-0.852144 -3.47948,-9.485621 3.91495,-23.4963226 3.83646,-23.6140628 z"
       sodipodi:nodetypes="ccccccc" />
  </g>
</svg>
