<?xml version="1.0" encoding="UTF-8" standalone="no"?>
<!-- Created with Inkscape (http://www.inkscape.org/) -->

<svg
   width="400"
   height="700"
   viewBox="0 0 105.83333 185.20834"
   version="1.1"
   id="svg1"
   sodipodi:docname="character.svg"
   inkscape:version="1.4.2 (f4327f4, 2025-05-13)"
   inkscape:export-batch-path="exports"
   inkscape:export-batch-name=""
   xmlns:inkscape="http://www.inkscape.org/namespaces/inkscape"
   xmlns:sodipodi="http://sodipodi.sourceforge.net/DTD/sodipodi-0.dtd"
   xmlns="http://www.w3.org/2000/svg"
   xmlns:svg="http://www.w3.org/2000/svg">
  <sodipodi:namedview
     id="namedview1"
     pagecolor="#ffffff"
     bordercolor="#000000"
     borderopacity="0.25"
     inkscape:showpageshadow="2"
     inkscape:pageopacity="0.0"
     inkscape:pagecheckerboard="false"
     inkscape:deskcolor="#d1d1d1"
     inkscape:document-units="mm"
     showgrid="true"
     inkscape:zoom="5.6568542"
     inkscape:cx="133.02446"
     inkscape:cy="613.85708"
     inkscape:window-width="1718"
     inkscape:window-height="1401"
     inkscape:window-x="-7"
     inkscape:window-y="0"
     inkscape:window-maximized="0"
     inkscape:current-layer="layer6"
     showguides="true" />
  <defs
     id="defs1">
    <inkscape:path-effect
       effect="fillet_chamfer"
       id="path-effect31"
       is_visible="true"
       lpeversion="1"
       nodesatellites_param="F,0,0,1,0,0,0,1 @ F,0,0,1,0,0,0,1 @ F,0,0,1,0,0,0,1 @ F,0,0,1,0,0,0,1"
       radius="0"
       unit="px"
       method="auto"
       mode="F"
       chamfer_steps="1"
       flexible="false"
       use_knot_distance="true"
       apply_no_radius="true"
       apply_with_radius="true"
       only_selected="false"
       hide_knots="false" />
    <inkscape:path-effect
       effect="fillet_chamfer"
       id="path-effect30"
       is_visible="true"
       lpeversion="1"
       nodesatellites_param="F,0,0,1,0,0,0,1 @ F,0,0,1,0,0,0,1 @ F,0,0,1,0,0,0,1 @ F,0,0,1,0,0,0,1"
       radius="0"
       unit="px"
       method="auto"
       mode="F"
       chamfer_steps="1"
       flexible="false"
       use_knot_distance="true"
       apply_no_radius="true"
       apply_with_radius="true"
       only_selected="false"
       hide_knots="false" />
    <inkscape:path-effect
       effect="fillet_chamfer"
       id="path-effect29"
       is_visible="true"
       lpeversion="1"
       nodesatellites_param="C,0,0,1,0,0,0,1 @ C,0,0,1,0,0,0,1 @ C,0,0,1,0,0,0,1 @ C,0,0,1,0,0,0,1"
       radius="0"
       unit="px"
       method="auto"
       mode="F"
       chamfer_steps="1"
       flexible="false"
       use_knot_distance="true"
       apply_no_radius="true"
       apply_with_radius="true"
       only_selected="false"
       hide_knots="false" />
  </defs>
  <g
     inkscape:groupmode="layer"
     id="g28"
     inkscape:label="back_leg">
    <path
       id="path25"
       style="fill:#214478;fill-opacity:1;stroke:#000000;stroke-width:4.23333;stroke-dasharray:none"
       d="m 51.912734,140.91454 c -0.0702,2.03459 3.04462,10.87137 3.41929,16.63502 0.2399,3.69051 -0.56832,10.3772 -0.97203,13.38678 h -0.0579 c -3.01589,2.17039 -2.79124,2.48705 -2.76934,5.62963 v 1.10484 l 7.65276,0.001 0.006,-0.99529 15.12414,0.83251 c 0.0955,-0.23563 0.22459,-0.4888 -0.0336,-0.82475 l 0.003,-0.0117 c 1.29503,-0.31036 1.37678,-4.54006 -2.21221,-6.21326 -2.56526,-1.9079 -9.49465,-0.27341 -11.23291,0.29714 0.88892,-3.12389 2.62172,-9.82593 2.29289,-13.55989 -0.49412,-5.6109 -2.40761,-15.92616 -2.40761,-15.92616"
       sodipodi:nodetypes="cscccccccccccsc"
       inkscape:export-filename="exports\full.png"
       inkscape:export-xdpi="96"
       inkscape:export-ydpi="96" />
    <path
       style="fill:#162d50;fill-opacity:1;stroke-width:0.529167"
       d="m 51.796044,140.79744 c 0,0 3.16135,10.9884 3.53602,16.75205 0.31611,4.86288 -1.18781,14.92773 -1.18781,14.92773 l 6.19581,-0.0321 c 0,0 3.23168,-10.26659 2.79293,-15.24875 -0.49412,-5.6109 -2.4073,-15.92612 -2.4073,-15.92612"
       id="path26"
       sodipodi:nodetypes="csccsc" />
    <path
       style="fill:#554400;fill-opacity:1;stroke:#000000;stroke-width:0.529167;stroke-dasharray:none"
       d="m 72.073074,170.45931 c 3.72633,1.73723 3.4576,6.24278 2.02325,6.24278 l -22.56377,-0.1362 c -0.0219,-3.14258 -0.2465,-3.4592 2.76939,-5.62959 l 6.13884,-0.0139 c 0,0 8.70063,-2.6435 11.63229,-0.46309 z"
       id="path27"
       sodipodi:nodetypes="cccccc" />
    <path
       style="fill:#000000;fill-opacity:1;stroke:none;stroke-width:2.08638;stroke-dasharray:none"
       d="m 51.532984,176.5319 -1.6e-4,1.13903 7.65276,6.6e-4 0.006,-0.99495 15.12417,0.83263 c 0.0955,-0.23563 0.22488,-0.48889 -0.0333,-0.82484 z"
       id="path28"
       sodipodi:nodetypes="ccccccc" />
  </g>
  <g
     inkscape:groupmode="layer"
     id="g19"
     inkscape:label="back_arm"
     transform="translate(31.220833)">
    <path
       style="baseline-shift:baseline;display:inline;overflow:visible;opacity:1;vector-effect:none;enable-background:accumulate;stop-color:#000000;stop-opacity:1"
       d="m 34.120444,85.51888 c 0,0 -4.23043,3.914731 -8.16992,9.029297 -1.96975,2.557282 -3.88381,5.420682 -5.1875,8.363283 -1.3037,2.9426 -2.0669,6.03875 -1.2461,9.01758 0.59124,2.1457 2.15122,3.68162 3.88672,4.91015 1.73551,1.22853 3.74404,2.17678 5.67188,2.93945 2.99555,1.18507 4.67681,1.51308 5.79687,1.77735 0.26127,0.98925 0.88978,1.8746 1.86914,2.33007 l 3.64649,1.69532 c 1.74401,0.8111 3.88982,0.0297 4.70117,-1.71485 l 3.2207,-6.92773 c 0.81128,-1.74439 0.0266,-3.88839 -1.71679,-4.69922 l -3.64649,-1.69726 c -1.42141,-0.66105 -3.07115,-0.22479 -4.08594,0.88867 -0.87354,-0.28783 -1.6643,-0.49825 -2.72656,-1.02539 -0.81805,-0.40596 -1.56754,-0.87766 -2.04101,-1.29688 -0.47348,-0.41921 -0.59447,-0.72524 -0.60157,-0.77148 0.0302,0.1968 -0.0216,0.0302 0.24024,-0.35938 0.26189,-0.38955 0.74653,-0.90966 1.27148,-1.375 1.04991,-0.93066 2.1836,-1.63867 2.1836,-1.63867 l -2.22657,-3.60156 c 0,0 -1.387,0.85022 -2.76562,2.07227 -0.68931,0.61102 -1.39616,1.31635 -1.97656,2.17968 -0.58041,0.86333 -1.12473,1.97818 -0.91211,3.36328 0.22164,1.44389 1.07586,2.49985 1.98046,3.30079 0.90461,0.80093 1.93581,1.4073 2.96485,1.91796 2.05808,1.02133 4.12315,1.63462 4.9375,1.86328 l 1.73242,0.48828 0.87109,-1.87304 2.38672,1.10937 -2.63476,5.66602 -3.01758,-1.40235 c 0.23979,0.11153 0.2592,0.4271 0.25586,0.69922 l -3.58789,-1.77929 2.22461,-1.04102 c 0,0 -3.32165,-0.71379 -6.78516,-2.08398 -1.73175,-0.6851 -3.48257,-1.53886 -4.78516,-2.46094 -1.30258,-0.92207 -2.0608,-1.88441 -2.25195,-2.57812 -0.42071,-1.52685 -0.0537,-3.72009 1.03516,-6.17774 1.08884,-2.45765 2.83081,-5.105872 4.67187,-7.496092 3.68213,-4.780439 6.20508,-9.963021 6.20508,-9.963021 z"
       id="path18"
       sodipodi:nodetypes="csssssccccccccsscssccssssscccccccccssssscc" />
    <path
       style="fill:#162d50;fill-opacity:1;stroke:none;stroke-width:2.11667;stroke-dasharray:none"
       d="m 35.559064,87.070613 c 0,0 -16.48463,15.284367 -14.0016,24.295697 1.56478,5.67884 15.42057,8.63049 15.42057,8.63049 l 3.08891,-5.8903 c 0,0 -8.14983,-2.07567 -8.66762,-5.44884 -0.36482,-2.37661 4.67423,-5.494 4.67423,-5.494"
       id="path19"
       sodipodi:nodetypes="csccsc" />
    <rect
       style="fill:#deaa87;fill-opacity:1;stroke:#000000;stroke-width:0.529167;stroke-dasharray:none"
       id="rect19"
       width="6.8658628"
       height="10.481765"
       x="84.135056"
       y="84.240021"
       ry="1.4217291"
       transform="rotate(24.941639)" />
  </g>
  <g
     inkscape:groupmode="layer"
     id="layer4"
     inkscape:label="torso">
    <rect
       style="fill:#ffd42a;fill-opacity:1;stroke:#000000;stroke-width:2.11667;stroke-dasharray:none"
       id="rect41"
       width="33.75885"
       height="48.936069"
       x="33.800632"
       y="85.172195"
       ry="1.7445514" />
    <path
       style="fill:#5f8dd3;fill-opacity:1;stroke:#000000;stroke-width:1.05833;stroke-dasharray:none"
       d="m 49.031014,85.62914 7.08224,18.98485 6.06067,-18.98485 z"
       id="path42"
       sodipodi:nodetypes="cccc" />
    <path
       style="fill:#5f8dd3;fill-opacity:1;stroke:#000000;stroke-width:1.05833;stroke-dasharray:none"
       d="m 38.480054,85.698842 c 1.48415,-0.122694 5.28825,26.154548 -4.11911,20.511318 l 0.0319,-20.492473 z"
       id="path43"
       sodipodi:nodetypes="cccc" />
    <path
       id="path46"
       style="fill:#93a7ac;fill-opacity:1;stroke:#000000;stroke-width:0.264583;stroke-dasharray:none"
       d="m 42.060874,85.970463 c 3.09203,8.461234 4.55185,17.236547 3.3096,26.610267 h -10.5633 v 3.61372 h 31.85947 V 86.055543 l -2.97488,-0.0097 c 1.8136,10.051508 1.30675,18.903287 -0.49432,26.435647 l -13.99402,0.0992 c 0.54188,-9.10077 -0.80104,-17.988848 -3.45975,-26.632394 z"
       sodipodi:nodetypes="ccccccccccc" />
    <rect
       style="fill:#93a7ac;fill-opacity:1;stroke:#000000;stroke-width:0.264583;stroke-dasharray:none"
       id="rect50"
       width="31.933561"
       height="4.0834789"
       x="34.715733"
       y="123.48137" />
    <path
       style="fill:none;fill-opacity:1;stroke:#000000;stroke-width:1.05833;stroke-dasharray:none"
       d="m 56.388244,103.74129 c 0,0 -0.8475,1.61979 -1.32012,5.83338 -0.47892,4.26979 -0.29285,23.664 -0.29285,23.664"
       id="path49"
       sodipodi:nodetypes="csc" />
    <path
       style="fill:#5f8dd3;fill-opacity:1;stroke:#000000;stroke-width:1.05833;stroke-dasharray:none"
       d="m 54.737434,129.37282 0.0375,4.2412 5.39073,0.0577 c -0.15699,0.434 -5.58578,-1.50385 -5.42822,-4.52867 z"
       id="path50"
       sodipodi:nodetypes="ccccc" />
    <path
       style="fill:#5f8dd3;fill-opacity:1;stroke:#000000;stroke-width:1.05833;stroke-dasharray:none"
       d="m 54.734324,129.31033 -0.0519,4.30115 -5.99378,0.0377 c 0.17542,0.434 6.22173,-1.31401 6.04567,-4.33883 z"
       id="path51"
       sodipodi:nodetypes="ccccc" />
    <path
       style="fill:#214478;fill-opacity:1;stroke:#000000;stroke-width:2.11667;stroke-dasharray:none"
       d="m 34.781794,133.74546 31.65881,0.11187 c -1.37421,9.82473 -2.68517,10.41264 -15.26622,10.38959 -11.23179,-0.0206 -15.22544,0.67889 -16.39259,-10.50146 z"
       id="path55"
       sodipodi:nodetypes="ccsc" />
    <path
       id="rect55"
       style="fill:#504416;stroke:#000000;stroke-width:0.529167"
       d="m 35.585674,134.43959 29.89915,0.22424 -0.51136,3.21228 -28.71651,-0.16931 z"
       sodipodi:nodetypes="ccccc" />
    <path
       id="rect56"
       style="fill:#808080;fill-opacity:1;stroke:#000000;stroke-width:0.264583;stroke-dasharray:none"
       d="m 52.619224,134.67432 v 3.11897 h 4.9393 v -3.11897 z m 0.69622,0.54355 h 3.54669 v 2.03203 h -3.54669 z" />
    <rect
       style="fill:#808080;fill-opacity:1;stroke:#000000;stroke-width:0.264583;stroke-dasharray:none"
       id="rect57"
       width="1.5329655"
       height="0.48776177"
       x="55.606739"
       y="136.03659" />
    <rect
       style="fill:#214478;fill-opacity:1;stroke:#000000;stroke-width:0.264583;stroke-dasharray:none"
       id="rect58"
       width="0.83248162"
       height="3.0867648"
       x="61.688587"
       y="134.66039" />
    <rect
       style="fill:#214478;fill-opacity:1;stroke:#000000;stroke-width:0.264583;stroke-dasharray:none"
       id="rect59"
       width="0.83248162"
       height="3.0867648"
       x="38.443851"
       y="134.66039" />
    <rect
       style="fill:#214478;fill-opacity:1;stroke:#000000;stroke-width:0.264583;stroke-dasharray:none"
       id="rect60"
       width="0.83248162"
       height="3.0867648"
       x="48.409992"
       y="134.66039" />
    <path
       style="fill:#5f8dd3;fill-opacity:1;stroke:none;stroke-width:4.23333;stroke-dasharray:none"
       d="m 54.174494,131.79247 c 0.3519,-0.37912 0.72278,-0.39763 1.11366,-0.0362 0.15866,0.3248 0.0837,0.67402 0.0369,1.00356 l -1.20982,-0.004 c -0.0501,-0.33914 0.009,-0.63339 0.0592,-0.96336 z"
       id="path20"
       sodipodi:nodetypes="cccccc" />
    <path
       id="path30"
       style="fill:#000000;fill-opacity:0.154062;stroke:none;stroke-width:1.05833;stroke-dasharray:none"
       d="m 33.800514,97.065703 0.71328,34.122377 c 0.0221,1.0563 0.25557,1.94809 1.45897,1.94809 h 0.44655 l 0.46971,-0.10559 v -29.53653 l 3e-5,1.20225 -1.06179,-1.60916 z"
       sodipodi:nodetypes="csscccccc" />
    <path
       id="path38"
       style="fill:#000000;fill-opacity:0.201681;stroke:none;stroke-width:1.05833;stroke-dasharray:none"
       d="m 34.781854,133.74532 c 0.53452,5.12024 1.66156,7.74883 3.80546,9.09609 h 5.1e-4 l 0.23978,-0.231 4.738527,0.672 c 0.05961,-0.29064 -0.449798,-3.5779 -3.522687,-3.65257 -1.410931,-0.0702 -1.216629,-5.28758 -1.21584,-5.28766 l -2.46807,-0.59117 z"
       sodipodi:nodetypes="ccccccccc" />
  </g>
  <g
     inkscape:groupmode="layer"
     id="layer6"
     inkscape:label="front_leg"
     style="display:inline">
    <path
       id="path23"
       style="fill:#214478;fill-opacity:1;stroke:#000000;stroke-width:4.23333;stroke-dasharray:none"
       d="m 40.271064,141.17912 c -0.0702,2.03459 3.04462,10.87137 3.41929,16.63502 0.2399,3.69051 -0.56832,10.3772 -0.97203,13.38678 h -0.0579 c -3.01589,2.17039 -2.79124,2.48705 -2.76934,5.62963 v 1.10484 l 7.65276,10e-4 0.006,-0.99529 15.12414,0.83251 c 0.0955,-0.23563 0.22459,-0.4888 -0.0336,-0.82475 l 0.003,-0.0117 c 1.29503,-0.31036 1.37678,-4.54006 -2.21221,-6.21326 -2.56526,-1.9079 -9.49465,-0.27341 -11.23291,0.29714 0.88892,-3.12389 2.62172,-9.82593 2.29289,-13.55989 -0.49412,-5.6109 -2.40761,-15.92616 -2.40761,-15.92616"
       sodipodi:nodetypes="cscccccccccccsc" />
    <path
       style="fill:#214478;fill-opacity:1;stroke-width:0.529167"
       d="m 40.154374,141.06202 c 0,0 3.16135,10.9884 3.53602,16.75205 0.31611,4.86288 -1.18781,14.92773 -1.18781,14.92773 l 6.19581,-0.0321 c 0,0 3.23168,-10.26659 2.79293,-15.24875 -0.49412,-5.6109 -2.4073,-15.92612 -2.4073,-15.92612"
       id="path12"
       sodipodi:nodetypes="csccsc" />
    <path
       style="fill:#806600;fill-opacity:1;stroke:#000000;stroke-width:0.529167;stroke-dasharray:none"
       d="m 60.431404,170.72389 c 3.72633,1.73723 3.4576,6.24278 2.02325,6.24278 l -22.56377,-0.1362 c -0.0219,-3.14258 -0.2465,-3.4592 2.76939,-5.62959 l 6.13884,-0.0139 c 0,0 8.70063,-2.6435 11.63229,-0.46309 z"
       id="path13"
       sodipodi:nodetypes="cccccc" />
    <path
       style="fill:#000000;fill-opacity:1;stroke:none;stroke-width:2.08638;stroke-dasharray:none"
       d="m 39.891314,176.79648 -1.6e-4,1.13903 7.65276,6.6e-4 0.006,-0.99495 15.12417,0.83263 c 0.0955,-0.23563 0.22488,-0.48889 -0.0333,-0.82484 z"
       id="path14"
       sodipodi:nodetypes="ccccccc" />
    <path
       id="path31"
       style="fill:#000000;fill-opacity:0.204482;stroke:none;stroke-width:1.05833;stroke-dasharray:none"
       d="m 40.154134,141.06219 c 0,0 3.16155,10.9883 3.53622,16.75195 0.2399,3.69051 -0.56832,10.3772 -0.97203,13.38678 h -0.0579 c -3.01589,2.17039 -2.79124,2.48705 -2.76934,5.62963 l 2.34818,0.0139 c -0.0118,-0.0573 -0.0247,-0.11354 -0.0382,-0.16898 -0.66146,-2.71198 2.77812,-5.42396 2.77812,-5.42396 2.625584,-10.33845 0.611482,-19.84771 -2.10219,-30.0452 z"
       sodipodi:nodetypes="cscccccccc" />
  </g>
  <g
     inkscape:groupmode="layer"
     id="layer5"
     inkscape:label="front_arm"
     style="display:inline">
    <path
       style="baseline-shift:baseline;display:inline;overflow:visible;opacity:1;vector-effect:none;enable-background:accumulate;stop-color:#000000;stop-opacity:1"
       d="m 34.120444,85.51888 c 0,0 -4.23043,3.914731 -8.16992,9.029297 -1.96975,2.557282 -3.88381,5.420682 -5.1875,8.363283 -1.3037,2.9426 -2.0669,6.03875 -1.2461,9.01758 0.59124,2.1457 2.15122,3.68162 3.88672,4.91015 1.73551,1.22853 3.74404,2.17678 5.67188,2.93945 2.99555,1.18507 4.67681,1.51308 5.79687,1.77735 0.26127,0.98925 0.88978,1.8746 1.86914,2.33007 l 3.64649,1.69532 c 1.74401,0.8111 3.88982,0.0297 4.70117,-1.71485 l 3.2207,-6.92773 c 0.81128,-1.74439 0.0266,-3.88839 -1.71679,-4.69922 l -3.64649,-1.69726 c -1.42141,-0.66105 -3.07115,-0.22479 -4.08594,0.88867 -0.87354,-0.28783 -1.6643,-0.49825 -2.72656,-1.02539 -0.81805,-0.40596 -1.56754,-0.87766 -2.04101,-1.29688 -0.47348,-0.41921 -0.59447,-0.72524 -0.60157,-0.77148 0.0302,0.1968 -0.0216,0.0302 0.24024,-0.35938 0.26189,-0.38955 0.74653,-0.90966 1.27148,-1.375 1.04991,-0.93066 2.1836,-1.63867 2.1836,-1.63867 l -2.22657,-3.60156 c 0,0 -1.387,0.85022 -2.76562,2.07227 -0.68931,0.61102 -1.39616,1.31635 -1.97656,2.17968 -0.58041,0.86333 -1.12473,1.97818 -0.91211,3.36328 0.22164,1.44389 1.07586,2.49985 1.98046,3.30079 0.90461,0.80093 1.93581,1.4073 2.96485,1.91796 2.05808,1.02133 4.12315,1.63462 4.9375,1.86328 l 1.73242,0.48828 0.87109,-1.87304 2.38672,1.10937 -2.63476,5.66602 -3.01758,-1.40235 c 0.23979,0.11153 0.2592,0.4271 0.25586,0.69922 l -3.58789,-1.77929 2.22461,-1.04102 c 0,0 -3.32165,-0.71379 -6.78516,-2.08398 -1.73175,-0.6851 -3.48257,-1.53886 -4.78516,-2.46094 -1.30258,-0.92207 -2.0608,-1.88441 -2.25195,-2.57812 -0.42071,-1.52685 -0.0537,-3.72009 1.03516,-6.17774 1.08884,-2.45765 2.83081,-5.105872 4.67187,-7.496092 3.68213,-4.780439 6.20508,-9.963021 6.20508,-9.963021 z"
       id="path17"
       sodipodi:nodetypes="csssssccccccccsscssccssssscccccccccssssscc" />
    <path
       style="fill:#5f8dd3;fill-opacity:1;stroke:none;stroke-width:2.11667;stroke-dasharray:none"
       d="m 35.559064,87.070613 c 0,0 -16.48463,15.284367 -14.0016,24.295697 1.56478,5.67884 15.42057,8.63049 15.42057,8.63049 l 3.08891,-5.8903 c 0,0 -8.14983,-2.07567 -8.66762,-5.44884 -0.36482,-2.37661 4.67423,-5.494 4.67423,-5.494"
       id="path29"
       sodipodi:nodetypes="csccsc" />
    <rect
       style="fill:#ffccaa;fill-opacity:1;stroke:#000000;stroke-width:0.529167;stroke-dasharray:none"
       id="rect1"
       width="6.8658628"
       height="10.481765"
       x="84.135056"
       y="84.240021"
       ry="1.4217291"
       transform="rotate(24.941639)" />
    <path
       id="path24"
       style="display:inline;fill:#000000;fill-opacity:0.154062;stroke:none;stroke-width:1.05833;stroke-dasharray:none"
       d="m 35.482334,85.734889 c -3.14635,3.075249 -16.09408,17.759451 -13.92499,25.631441 1.56478,5.67883 15.42076,8.63048 15.42076,8.63048 l 0.52917,-1.00924 -1.60352,-0.74828 c -14.01727,-4.74437 -12.49041,-9.49537 -12.49066,-9.49529 1.13707,-7.13218 12.61445,-21.182533 12.69199,-21.402651 0.0801,-0.258694 -0.0271,-1.482954 -0.0271,-1.482954 z"
       sodipodi:nodetypes="csccccccc" />
    <path
       id="path39"
       style="fill:#000000;fill-opacity:0.148459;stroke:none;stroke-width:1.05833;stroke-dasharray:none"
       d="m 37.357414,119.19065 -0.4129,0.88729 c -0.33214,0.71418 -0.0248,1.55663 0.68937,1.88877 l 3.64732,1.69602 c 0.71418,0.33215 1.64612,0.06 1.88877,-0.68936 l 0.0991,-0.30616 c 0,0 -4.76862,-2.18258 -5.33086,-2.4637 -0.56224,-0.20671 -0.58084,-1.01286 -0.58084,-1.01286 z"
       sodipodi:nodetypes="ccccsccc" />
  </g>
  <g
     inkscape:groupmode="layer"
     id="layer3"
     inkscape:label="head"
     style="display:inline">
    <rect
       style="fill:#ffccaa;fill-opacity:1;stroke:#000000;stroke-width:2.11667;stroke-dasharray:none"
       id="rect29"
       width="60.845192"
       height="50.792503"
       x="20.422659"
       y="34.270851"
       sodipodi:type="rect"
       ry="6.8138909" />
    <rect
       style="fill:#f9f9f9;fill-opacity:1;stroke:#000000;stroke-width:1.05833;stroke-dasharray:none"
       id="rect31"
       width="10.946329"
       height="16.131432"
       x="45.883732"
       y="45.904785"
       ry="2.6001315" />
    <path
       id="rect32"
       style="fill:#000000;fill-opacity:1;stroke:none;stroke-width:2.11667;stroke-dasharray:none"
       d="m 52.653814,53.39455 c -0.81728,0 -1.47536,0.658075 -1.47536,1.475363 v 6.202205 c 0,0.369221 0.13398,0.70607 0.35657,0.964282 h 2.69492 c 1.44048,0 2.60036,-1.159885 2.60036,-2.600358 v -5.724198 c -0.25133,-0.198853 -0.56993,-0.317294 -0.91674,-0.317294 z" />
    <rect
       style="fill:#f9f9f9;fill-opacity:1;stroke:#000000;stroke-width:1.05833;stroke-dasharray:none"
       id="rect33"
       width="10.946329"
       height="16.131432"
       x="66.700981"
       y="45.904785"
       ry="2.6001315" />
    <path
       id="path33"
       style="fill:#000000;fill-opacity:1;stroke:none;stroke-width:2.11667;stroke-dasharray:none"
       d="m 73.471054,53.39455 c -0.81728,0 -1.47536,0.658075 -1.47536,1.475363 v 6.202205 c 0,0.369221 0.13398,0.70607 0.35657,0.964282 h 2.69492 c 1.44048,0 2.60036,-1.159885 2.60036,-2.600358 v -5.724198 c -0.25133,-0.198853 -0.56993,-0.317294 -0.91674,-0.317294 z" />
    <path
       style="fill:none;fill-opacity:1;stroke:#000000;stroke-width:1.05833;stroke-dasharray:none"
       d="m 34.718224,54.252918 c 0,0 -3.44405,-1.004518 -6.1706,1.004517 -2.72654,2.009031 1.29152,8.466637 1.29152,8.466637 0,0 2.72655,4.161568 5.59659,-1.004517"
       id="path34" />
    <path
       style="fill:#000000;fill-opacity:1;stroke:#000000;stroke-width:1.05833;stroke-dasharray:none"
       d="M 76.388044,75.931119 H 51.165164"
       id="path35" />
    <path
       style="fill:none;fill-opacity:1;stroke:#000000;stroke-width:0.529167;stroke-dasharray:none"
       d="m 32.689654,57.139405 c 0,0 -2.19521,0.201298 -2.15752,3.130139 0.01,0.760714 2.76778,1.280645 2.76778,1.280645"
       id="path36"
       sodipodi:nodetypes="csc" />
    <path
       style="fill:none;fill-opacity:1;stroke:#000000;stroke-width:1.05833;stroke-dasharray:none"
       d="m 63.527934,61.793701 c 0,0 4.20026,6.526227 1.3637,6.693987 -2.83656,0.167761 -3.9418,-0.280049 -3.9418,-0.280049"
       id="path44" />
    <path
       id="path22"
       style="fill:#000000;fill-opacity:0.154062;stroke:none;stroke-width:1.05833;stroke-dasharray:none"
       d="m 27.236584,34.270776 c -3.7749,0 -6.81406,3.039159 -6.81406,6.814054 v 37.164657 c 0,3.41301 2.48425,6.22421 5.75056,6.731889 l -0.18501,-0.605131 c -0.60641,0.555877 -2.42772,-35.760901 0,-39.061182 1.1158,-2.67806 57.68143,-1.160469 55.19147,0 v -5.336108 c -0.10451,-0.645492 -0.2991,-1.260032 -0.57051,-1.830379 -6e-5,-1.37e-4 6e-5,-3.81e-4 0,-5.17e-4 l -4.6248,-3.607859 -15.43031,-0.269424 z"
       sodipodi:nodetypes="ssscccccscccs" />
  </g>
  <g
     inkscape:groupmode="layer"
     id="layer2"
     inkscape:label="helmet"
     style="display:inline">
    <path
       id="path37"
       style="fill:#ffd42a;fill-opacity:1;stroke:#000000;stroke-width:2.11667;stroke-dasharray:none"
       d="m 51.718994,6.8253553 a 38.270901,31.823084 0 0 0 -38.27104,31.8228637 38.270901,31.823084 0 0 0 0.0992,2.288232 h 75.7251 l 9.75599,0.171566 c -5.7568,-4.899407 -8.30468,-5.513825 -9.21597,-5.516459 A 38.270901,31.823084 0 0 0 51.718984,6.8253553 Z" />
    <path
       style="fill:none;fill-opacity:1;stroke:#000000;stroke-width:1.05833;stroke-dasharray:none"
       d="m 24.152924,28.63982 c 23.71672,-10.280032 49.47619,-1.453875 54.19481,3.028291"
       id="path40"
       sodipodi:nodetypes="cc" />
    <path
       style="fill:none;fill-opacity:1;stroke:#000000;stroke-width:1.05833;stroke-dasharray:none"
       d="m 25.619614,21.306372 c 23.71672,-10.280032 49.47619,-1.453875 54.19481,3.028291"
       id="path41"
       sodipodi:nodetypes="cc" />
    <path
       style="display:inline;fill:#000000;fill-opacity:0.148459;stroke:none;stroke-width:1.05833;stroke-dasharray:none"
       d="m 24.358194,29.03186 c 0,0 0.15883,0.766077 1.19738,0.429926 14.25077,-4.612598 31.85194,-6.437509 51.44687,2.551238 0.44846,0.205719 0.98672,0.03522 0.98672,0.03522 0.42408,-0.45976 -21.40195,-16.435523 -53.63097,-3.016388 z"
       id="path21"
       sodipodi:nodetypes="cssccc" />
    <path
       style="display:inline;fill:#000000;fill-opacity:0.148459;stroke:none;stroke-width:1.05833;stroke-dasharray:none"
       d="m 25.805134,21.688619 c 0,0 0.0332,0.641043 1.07336,0.310037 14.35728,-4.56876 31.99383,-6.358424 51.44687,2.551238 0.44858,0.205453 0.98704,0.236263 1.13045,0.166051 0.32641,-0.310485 -21.4918,-15.9681897 -53.65068,-3.027326 z"
       id="path45"
       sodipodi:nodetypes="csscc" />
    <path
       id="path47"
       style="font-variation-settings:normal;opacity:1;vector-effect:none;fill:#000000;fill-opacity:0.148459;stroke:none;stroke-width:1.05833;stroke-linecap:butt;stroke-linejoin:miter;stroke-miterlimit:4;stroke-dasharray:none;stroke-dashoffset:0;stroke-opacity:1;-inkscape-stroke:none"
       d="m 24.999504,15.864665 c -7.38639,5.989368 -11.55178,14.204812 -11.55175,22.783622 5e-5,0.763487 0.0332,1.526725 0.0992,2.288232 h 7.90546 c -0.0746,-0.270925 -0.16951,-0.554842 -0.28577,-0.852144 -3.47948,-9.485621 3.91495,-23.496322 3.83646,-23.614063 z"
       sodipodi:nodetypes="ccccccc" />
  </g>
</svg>
